<svg width="107" height="26" viewBox="0 0 107 26" fill="none" xmlns="http://www.w3.org/2000/svg">
<circle cx="83" cy="2" r="2" fill="#EEEEEE"/>
<circle cx="105" cy="2" r="2" fill="#EEEEEE"/>
<circle cx="83" cy="24" r="2" fill="#EEEEEE"/>
<circle cx="105" cy="24" r="2" fill="#EEEEEE"/>
<circle cx="94" cy="13" r="9.5" stroke="white" stroke-width="3"/>
<path d="M12.0845 2C17.024 2 19.7888 4.14327 19.7888 8.99713C19.7888 14.1977 16.8065 15.9943 11.5254 15.9943H3.60362V24H0V2H12.0845ZM11.836 12.937C15.16 12.937 16.1231 11.4556 16.1231 8.99713C16.1231 6.53868 15.16 5.02579 11.836 5.02579H3.60362V12.937H11.836Z" fill="white"/>
<path d="M17.6751 24L25.7522 2H32.1828L40.2599 24H36.3767L34.668 19.1461H23.267L21.5583 24H17.6751ZM24.2921 16.1834H33.6429L31.6857 10.6046C30.7538 7.95702 29.8839 5.30945 29.4801 4.14327H28.486C27.9889 5.84527 27.088 8.27221 26.2803 10.6046L24.2921 16.1834Z" fill="white"/>
<path d="M44.8967 20.7536H57.4472V24H41.293V2H44.8967V20.7536Z" fill="white"/>
<path d="M75 5.24642H62.4184V11.2665H74.7515V14.3553H62.4184V20.7536H75V24H58.8148V2H75V5.24642Z" fill="white"/>
</svg>
